{"title":"Hyenas 2011 720p BRRip x264 Feel-Free","uid":6323815,"size":2366046555,"categoryP":"video","categoryS":"hd___movies","magnet":"?xt=urn:btih:95f235d77e1e3832f1073693706001e973942bee&amp;dn=Hyenas+2011+720p+BRRip+x264+Feel-Free&amp;tr=udp%3A%2F%2Ftracker.openbittorrent.com%3A80&amp;tr=udp%3A%2F%2Fopen.demonii.com%3A1337&amp;tr=udp%3A%2F%2Ftracker.coppersurfer.tk%3A6969&amp;tr=udp%3A%2F%2Fexodus.desync.com%3A6969","seeders":0,"leechers":1,"uploader":"qwersd","files":12,"time":1303041234,"description":"Genre:Horror \nLanguage:English\nIMDb:http://www.imdb.com/title/tt0887143/\nSource:1080p.BluRay.x264-THUGLiNE\nSubtitles:Romana\n\n\nFormat : MPEG-4\nFormat profile : Base Media\nCodec ID : isom\nFile size : 2.20 GiB\nDuration : 1h 32mn\nOverall bit rate : 3 392 Kbps\n\n\nVideo\nID : 1\nFormat : AVC\nFormat/Info : Advanced Video Codec\nFormat profile : &lt;a class=&quot;__cf_email__&quot; href=&quot;/cdn-cgi/l/email-protection&quot; data-cfemail=&quot;7b33121c133b374f554a&quot;&gt;[email&amp;#160;protected]&lt;/a&gt;&lt;script cf-hash='f9e31' type=&quot;text/javascript&quot;&gt;\n/* &lt;![CDATA[ */!function(){try{var t=&quot;currentScript&quot;in document?document.currentScript:function(){for(var t=document.getElementsByTagName(&quot;script&quot;),e=t.length;e--;)if(t[e].getAttribute(&quot;cf-hash&quot;))return t[e]}();if(t&amp;&amp;t.previousSibling){var e,r,n,i,c=t.previousSibling,a=c.getAttribute(&quot;data-cfemail&quot;);if(a){for(e=&quot;&quot;,r=parseInt(a.substr(0,2),16),n=2;a.length-n;n+=2)i=parseInt(a.substr(n,2),16)^r,e+=String.fromCharCode(i);e=document.createTextNode(e),c.parentNode.replaceChild(e,c)}}}catch(u){}}();/* ]]&gt; */&lt;/script&gt;\nFormat settings, CABAC : Yes\nFormat settings, ReFrames : 3 frames\nCodec ID : avc1\nCodec ID/Info : Advanced Video Coding\nDuration : 1h 32mn\nBit rate mode : Variable\nBit rate : 3 000 Kbps\nMaximum bit rate : 20.4 Mbps\nWidth : 1 280 pixels\nHeight : 720 pixels\nDisplay aspect ratio : 16:9\nFrame rate mode : Constant\nFrame rate : 23.976 fps\nColor space : YUV\nChroma subsampling : 4:2:0\nBit depth : 8 bits\nScan type : Progressive\nBits/(Pixel*Frame) : 0.136\nStream size : 1.91 GiB (87%)\nWriting library : x264\n\n\nAudio\nID : 2\nFormat : AAC\nFormat/Info : Advanced Audio Codec\nFormat version : Version 4\nFormat profile : LC\nFormat settings, SBR : No\nCodec ID : 40\nDuration : 1h 32mn\nBit rate mode : Variable\nBit rate : 444 Kbps\nMaximum bit rate : 556 Kbps\nChannel(s) : 6 channels\nChannel positions : Front: L C R, Side: L R, LFE\nSampling rate : 48.0 KHz\nStream size : 295 MiB (13%)\n\n\nPlot:\nRoving clans of shape-shifting human/hyena creatures prowl and hunt for human prey. They are hunted by one man seeking revenge for the death of his loved ones.\n\nScreenshots:\n &lt;a href=&quot;\nhttp://www.pix2links.com/images/04707744182955426442.png&quot; rel=&quot;nofollow&quot; target=&quot;_NEW&quot;&gt;\nhttp://www.pix2links.com/images/04707744182955426442.png&lt;/a&gt; &lt;a href=&quot;\nhttp://www.pix2links.com/images/28827250933761009948.png&quot; rel=&quot;nofollow&quot; target=&quot;_NEW&quot;&gt;\nhttp://www.pix2links.com/images/28827250933761009948.png&lt;/a&gt; &lt;a href=&quot;\nhttp://www.pix2links.com/images/79884810306780335689.png&quot; rel=&quot;nofollow&quot; target=&quot;_NEW&quot;&gt;\nhttp://www.pix2links.com/images/79884810306780335689.png&lt;/a&gt; &lt;a href=&quot;\nhttp://www.pix2links.com/images/03950001915488960910.png&quot; rel=&quot;nofollow&quot; target=&quot;_NEW&quot;&gt;\nhttp://www.pix2links.com/images/03950001915488960910.png&lt;/a&gt; &lt;a href=&quot;\nhttp://www.pix2links.com/images/68949480764769601146.png&quot; rel=&quot;nofollow&quot; target=&quot;_NEW&quot;&gt;\nhttp://www.pix2links.com/images/68949480764769601146.png&lt;/a&gt; &lt;a href=&quot;\nhttp://www.pix2links.com/images/77129144450448630307.png&quot; rel=&quot;nofollow&quot; target=&quot;_NEW&quot;&gt;\nhttp://www.pix2links.com/images/77129144450448630307.png&lt;/a&gt;","torrent":{"xt":"urn:btih:95f235d77e1e3832f1073693706001e973942bee","amp;dn":"Hyenas+2011+720p+BRRip+x264+Feel-Free","amp;tr":["udp%3A%2F%2Ftracker.openbittorrent.com%3A80","udp%3A%2F%2Fopen.demonii.com%3A1337","udp%3A%2F%2Ftracker.coppersurfer.tk%3A6969","udp%3A%2F%2Fexodus.desync.com%3A6969"],"infoHash":"95f235d77e1e3832f1073693706001e973942bee","infoHashBuffer":{"type":"Buffer","data":[149,242,53,215,126,30,56,50,241,7,54,147,112,96,1,233,115,148,43,238]},"announce":[],"urlList":[]}}